<mxfile host="app.diagrams.net" agent="Mozilla/5.0 (Windows NT 10.0; Win64; x64) AppleWebKit/537.36 (KHTML, like Gecko) Chrome/134.0.0.0 Safari/537.36 Edg/134.0.0.0" version="26.1.1">
  <diagram name="Página-1" id="VREHpDYWWFybuZmzJU_6">
    <mxGraphModel grid="1" page="1" gridSize="10" guides="1" tooltips="1" connect="1" arrows="1" fold="1" pageScale="1" pageWidth="827" pageHeight="1169" math="0" shadow="0">
      <root>
        <mxCell id="0" />
        <mxCell id="1" parent="0" />
        <mxCell id="XjSvRoeV8hZmv7rYar2_-1" value="&lt;b&gt;Cliente&lt;/b&gt;" style="shape=umlActor;verticalLabelPosition=bottom;verticalAlign=top;html=1;outlineConnect=0;strokeWidth=6;shadow=1;" vertex="1" parent="1">
          <mxGeometry x="160" y="220" width="30" height="60" as="geometry" />
        </mxCell>
        <mxCell id="XjSvRoeV8hZmv7rYar2_-3" value="&lt;span style=&quot;background-color: light-dark(#ffffff, var(--ge-dark-color, #121212));&quot;&gt;&lt;b&gt;Prestador&lt;/b&gt;&lt;/span&gt;&lt;div&gt;&lt;span style=&quot;background-color: light-dark(#ffffff, var(--ge-dark-color, #121212));&quot;&gt;&lt;b&gt;de&lt;/b&gt;&lt;/span&gt;&lt;/div&gt;&lt;div&gt;&lt;span style=&quot;background-color: light-dark(#ffffff, var(--ge-dark-color, #121212));&quot;&gt;&lt;b&gt;serviços&lt;/b&gt;&lt;/span&gt;&lt;/div&gt;" style="shape=umlActor;verticalLabelPosition=bottom;verticalAlign=top;html=1;outlineConnect=0;strokeWidth=6;shadow=1;gradientColor=none;" vertex="1" parent="1">
          <mxGeometry x="650" y="220" width="30" height="60" as="geometry" />
        </mxCell>
        <mxCell id="XjSvRoeV8hZmv7rYar2_-4" value="" style="rounded=0;whiteSpace=wrap;html=1;direction=south;gradientColor=none;fillColor=none;" vertex="1" parent="1">
          <mxGeometry x="309" y="20" width="210" height="420" as="geometry" />
        </mxCell>
        <mxCell id="XjSvRoeV8hZmv7rYar2_-5" value="Agendamento" style="text;html=1;align=center;verticalAlign=middle;whiteSpace=wrap;rounded=0;fontStyle=1;fontSize=19;" vertex="1" parent="1">
          <mxGeometry x="384" y="30" width="60" height="30" as="geometry" />
        </mxCell>
        <mxCell id="XjSvRoeV8hZmv7rYar2_-6" value="Fazer cadastro" style="ellipse;whiteSpace=wrap;html=1;fillColor=#dae8fc;strokeColor=#6c8ebf;shadow=1;gradientColor=light-dark(#99CCFF,#EDEDED);" vertex="1" parent="1">
          <mxGeometry x="350" y="90" width="120" height="50" as="geometry" />
        </mxCell>
        <mxCell id="XjSvRoeV8hZmv7rYar2_-8" value="Fazer login" style="ellipse;whiteSpace=wrap;html=1;fillColor=#dae8fc;strokeColor=#6c8ebf;shadow=1;gradientColor=light-dark(#99CCFF,#EDEDED);" vertex="1" parent="1">
          <mxGeometry x="350" y="150" width="120" height="40" as="geometry" />
        </mxCell>
        <mxCell id="XjSvRoeV8hZmv7rYar2_-9" value="Agenda" style="ellipse;whiteSpace=wrap;html=1;fillColor=#dae8fc;strokeColor=#6c8ebf;shadow=1;gradientColor=light-dark(#99CCFF,#EDEDED);" vertex="1" parent="1">
          <mxGeometry x="354" y="320" width="120" height="40" as="geometry" />
        </mxCell>
        <mxCell id="XjSvRoeV8hZmv7rYar2_-10" value="Cancela agendamento" style="ellipse;whiteSpace=wrap;html=1;fillColor=#dae8fc;strokeColor=#6c8ebf;shadow=1;gradientColor=light-dark(#99CCFF,#EDEDED);" vertex="1" parent="1">
          <mxGeometry x="339" y="370" width="150" height="50" as="geometry" />
        </mxCell>
        <mxCell id="XjSvRoeV8hZmv7rYar2_-11" value="" style="endArrow=none;html=1;rounded=0;entryX=0;entryY=0.5;entryDx=0;entryDy=0;exitX=1;exitY=0.3333333333333333;exitDx=0;exitDy=0;exitPerimeter=0;" edge="1" parent="1" source="XjSvRoeV8hZmv7rYar2_-1" target="XjSvRoeV8hZmv7rYar2_-6">
          <mxGeometry width="50" height="50" relative="1" as="geometry">
            <mxPoint x="150" y="220" as="sourcePoint" />
            <mxPoint x="200" y="170" as="targetPoint" />
          </mxGeometry>
        </mxCell>
        <mxCell id="XjSvRoeV8hZmv7rYar2_-13" value="" style="endArrow=none;html=1;rounded=0;entryX=0;entryY=0.5;entryDx=0;entryDy=0;exitX=1;exitY=0.3333333333333333;exitDx=0;exitDy=0;exitPerimeter=0;" edge="1" parent="1" source="XjSvRoeV8hZmv7rYar2_-1" target="XjSvRoeV8hZmv7rYar2_-8">
          <mxGeometry width="50" height="50" relative="1" as="geometry">
            <mxPoint x="150" y="235" as="sourcePoint" />
            <mxPoint x="200" y="185" as="targetPoint" />
          </mxGeometry>
        </mxCell>
        <mxCell id="XjSvRoeV8hZmv7rYar2_-14" value="" style="endArrow=none;html=1;rounded=0;entryX=0;entryY=0.5;entryDx=0;entryDy=0;exitX=1;exitY=0.3333333333333333;exitDx=0;exitDy=0;exitPerimeter=0;" edge="1" parent="1" source="XjSvRoeV8hZmv7rYar2_-1" target="XjSvRoeV8hZmv7rYar2_-9">
          <mxGeometry width="50" height="50" relative="1" as="geometry">
            <mxPoint x="150" y="250" as="sourcePoint" />
            <mxPoint x="350" y="220" as="targetPoint" />
          </mxGeometry>
        </mxCell>
        <mxCell id="XjSvRoeV8hZmv7rYar2_-15" value="" style="endArrow=none;html=1;rounded=0;entryX=0;entryY=0.5;entryDx=0;entryDy=0;exitX=1;exitY=0.3333333333333333;exitDx=0;exitDy=0;exitPerimeter=0;" edge="1" parent="1" source="XjSvRoeV8hZmv7rYar2_-1" target="XjSvRoeV8hZmv7rYar2_-10">
          <mxGeometry width="50" height="50" relative="1" as="geometry">
            <mxPoint x="140" y="190" as="sourcePoint" />
            <mxPoint x="360" y="230" as="targetPoint" />
          </mxGeometry>
        </mxCell>
        <mxCell id="XjSvRoeV8hZmv7rYar2_-22" value="" style="endArrow=none;html=1;rounded=0;exitX=1;exitY=0.5;exitDx=0;exitDy=0;entryX=0;entryY=0.3333333333333333;entryDx=0;entryDy=0;entryPerimeter=0;" edge="1" parent="1" source="XjSvRoeV8hZmv7rYar2_-8" target="XjSvRoeV8hZmv7rYar2_-3">
          <mxGeometry width="50" height="50" relative="1" as="geometry">
            <mxPoint x="650" y="260" as="sourcePoint" />
            <mxPoint x="750" y="210" as="targetPoint" />
          </mxGeometry>
        </mxCell>
        <mxCell id="XjSvRoeV8hZmv7rYar2_-26" value="" style="endArrow=none;html=1;rounded=0;exitX=1;exitY=0.5;exitDx=0;exitDy=0;entryX=0;entryY=0.3333333333333333;entryDx=0;entryDy=0;entryPerimeter=0;" edge="1" parent="1" source="XjSvRoeV8hZmv7rYar2_-10" target="XjSvRoeV8hZmv7rYar2_-3">
          <mxGeometry width="50" height="50" relative="1" as="geometry">
            <mxPoint x="640" y="330" as="sourcePoint" />
            <mxPoint x="740" y="240" as="targetPoint" />
          </mxGeometry>
        </mxCell>
        <mxCell id="XjSvRoeV8hZmv7rYar2_-28" value="Disponibiliza&amp;nbsp;&lt;div&gt;os horários&amp;nbsp;&lt;/div&gt;" style="ellipse;whiteSpace=wrap;html=1;fillColor=#dae8fc;strokeColor=#6c8ebf;shadow=1;gradientColor=light-dark(#99CCFF,#EDEDED);" vertex="1" parent="1">
          <mxGeometry x="346" y="260" width="136" height="50" as="geometry" />
        </mxCell>
        <mxCell id="XjSvRoeV8hZmv7rYar2_-29" value="" style="endArrow=none;html=1;rounded=0;entryX=0;entryY=0.3333333333333333;entryDx=0;entryDy=0;entryPerimeter=0;exitX=1;exitY=0.5;exitDx=0;exitDy=0;" edge="1" parent="1" source="XjSvRoeV8hZmv7rYar2_-28" target="XjSvRoeV8hZmv7rYar2_-3">
          <mxGeometry width="50" height="50" relative="1" as="geometry">
            <mxPoint x="660" y="270" as="sourcePoint" />
            <mxPoint x="710" y="220" as="targetPoint" />
          </mxGeometry>
        </mxCell>
        <mxCell id="VO8jjyjeZC2_AyIisrtZ-4" value="" style="endArrow=none;html=1;rounded=0;exitX=1;exitY=0.5;exitDx=0;exitDy=0;" edge="1" parent="1" source="XjSvRoeV8hZmv7rYar2_-6" target="XjSvRoeV8hZmv7rYar2_-3">
          <mxGeometry width="50" height="50" relative="1" as="geometry">
            <mxPoint x="480" y="190" as="sourcePoint" />
            <mxPoint x="640" y="270" as="targetPoint" />
          </mxGeometry>
        </mxCell>
        <mxCell id="VO8jjyjeZC2_AyIisrtZ-6" value="Cria e precifica os serviços" style="ellipse;whiteSpace=wrap;html=1;fillColor=#dae8fc;strokeColor=#6c8ebf;shadow=1;gradientColor=light-dark(#99CCFF,#EDEDED);" vertex="1" parent="1">
          <mxGeometry x="334" y="200" width="160" height="50" as="geometry" />
        </mxCell>
        <mxCell id="VO8jjyjeZC2_AyIisrtZ-7" value="" style="endArrow=none;html=1;rounded=0;exitX=1;exitY=0.5;exitDx=0;exitDy=0;entryX=0;entryY=0.3333333333333333;entryDx=0;entryDy=0;entryPerimeter=0;" edge="1" parent="1" source="VO8jjyjeZC2_AyIisrtZ-6" target="XjSvRoeV8hZmv7rYar2_-3">
          <mxGeometry width="50" height="50" relative="1" as="geometry">
            <mxPoint x="480" y="240" as="sourcePoint" />
            <mxPoint x="640" y="160" as="targetPoint" />
          </mxGeometry>
        </mxCell>
      </root>
    </mxGraphModel>
  </diagram>
</mxfile>
